<?xml version="1.0" encoding="UTF-8" standalone="no"?>
<!DOCTYPE svg PUBLIC "-//W3C//DTD SVG 1.1//EN"
 "http://www.w3.org/Graphics/SVG/1.1/DTD/svg11.dtd">
<!-- Generated by graphviz version 2.40.1 (20161225.0304)
 -->
<!-- Title: Requirements Pages: 1 -->
<svg width="336pt" height="188pt"
 viewBox="0.00 0.00 336.00 188.00" xmlns="http://www.w3.org/2000/svg" xmlns:xlink="http://www.w3.org/1999/xlink">
<g id="graph0" class="graph" transform="scale(1 1) rotate(0) translate(4 184)">
<title>Requirements</title>
<polygon fill="#ffffff" stroke="transparent" points="-4,4 -4,-184 332,-184 332,4 -4,4"/>
<!-- Functional -->
<g id="node1" class="node">
<title>Functional</title>
<polygon fill="#87ceff" stroke="#87ceff" points="272,-180 56,-180 56,-144 272,-144 272,-180"/>
<text text-anchor="middle" x="164" y="-158.3" font-family="Times,serif" font-size="14.00" fill="#000000">functional requirements</text>
</g>
<!-- Middle -->
<g id="node5" class="node">
<title>Middle</title>
<ellipse fill="#000000" stroke="#000000" cx="164" cy="-90" rx="1.8" ry="1.8"/>
</g>
<!-- Functional&#45;&gt;Middle -->
<g id="edge1" class="edge">
<title>Functional&#45;&gt;Middle</title>
<path fill="none" stroke="#000000" d="M164,-133.8314C164,-133.8314 164,-91.8068 164,-91.8068"/>
<polygon fill="#000000" stroke="#000000" points="160.5001,-133.8313 164,-143.8314 167.5001,-133.8314 160.5001,-133.8313"/>
</g>
<!-- NonFunctional -->
<g id="node2" class="node">
<title>NonFunctional</title>
<polygon fill="#87ceff" stroke="#87ceff" points="272,-36 56,-36 56,0 272,0 272,-36"/>
<text text-anchor="middle" x="164" y="-14.3" font-family="Times,serif" font-size="14.00" fill="#000000">non&#45;functional requirements</text>
</g>
<!-- Technical -->
<g id="node3" class="node">
<title>Technical</title>
<polygon fill="#c6e2ff" stroke="#c6e2ff" points="144,-108 0,-108 0,-72 144,-72 144,-108"/>
<text text-anchor="middle" x="72" y="-86.3" font-family="Times,serif" font-size="14.00" fill="#000000">technical level</text>
</g>
<!-- Technical&#45;&gt;Middle -->
<g id="edge2" class="edge">
<title>Technical&#45;&gt;Middle</title>
<path fill="none" stroke="#000000" d="M154.0374,-90C154.0374,-90 162.1363,-90 162.1363,-90"/>
<polygon fill="#000000" stroke="#000000" points="154.0374,-86.5001 144.0374,-90 154.0373,-93.5001 154.0374,-86.5001"/>
</g>
<!-- Customer -->
<g id="node4" class="node">
<title>Customer</title>
<polygon fill="#c6e2ff" stroke="#c6e2ff" points="328,-108 184,-108 184,-72 328,-72 328,-108"/>
<text text-anchor="middle" x="256" y="-86.3" font-family="Times,serif" font-size="14.00" fill="#000000">stakeholder level</text>
</g>
<!-- Middle&#45;&gt;NonFunctional -->
<g id="edge4" class="edge">
<title>Middle&#45;&gt;NonFunctional</title>
<path fill="none" stroke="#000000" d="M164,-87.9228C164,-87.9228 164,-46.0032 164,-46.0032"/>
<polygon fill="#000000" stroke="#000000" points="167.5001,-46.0032 164,-36.0032 160.5001,-46.0032 167.5001,-46.0032"/>
</g>
<!-- Middle&#45;&gt;Customer -->
<g id="edge3" class="edge">
<title>Middle&#45;&gt;Customer</title>
<path fill="none" stroke="#000000" d="M165.9216,-90C165.9216,-90 173.8918,-90 173.8918,-90"/>
<polygon fill="#000000" stroke="#000000" points="173.8918,-93.5001 183.8918,-90 173.8918,-86.5001 173.8918,-93.5001"/>
</g>
</g>
</svg>
