<?xml version="1.0" encoding="UTF-8" standalone="no"?>
<!DOCTYPE svg PUBLIC "-//W3C//DTD SVG 1.1//EN"
 "http://www.w3.org/Graphics/SVG/1.1/DTD/svg11.dtd">
<!-- Generated by graphviz version 2.40.1 (20161225.0304)
 -->
<!-- Title: %3 Pages: 1 -->
<svg width="662pt" height="617pt"
 viewBox="0.00 0.00 662.00 617.00" xmlns="http://www.w3.org/2000/svg" xmlns:xlink="http://www.w3.org/1999/xlink">
<g id="graph0" class="graph" transform="scale(1 1) rotate(0) translate(4 613)">
<title>%3</title>
<polygon fill="#ffffff" stroke="transparent" points="-4,4 -4,-613 658,-613 658,4 -4,4"/>
<g id="clust1" class="cluster">
<title>clusterOrganisation</title>
<polygon fill="none" stroke="#000000" points="8,-8 8,-601 646,-601 646,-8 8,-8"/>
<text text-anchor="middle" x="603" y="-585.8" font-family="Times,serif" font-size="14.00" fill="#000000">Organisation</text>
</g>
<g id="clust2" class="cluster">
<title>clusterProject</title>
<polygon fill="none" stroke="#000000" points="16,-16 16,-454 638,-454 638,-16 16,-16"/>
<text text-anchor="middle" x="569" y="-438.8" font-family="Times,serif" font-size="14.00" fill="#000000">Project / Management</text>
</g>
<g id="clust3" class="cluster">
<title>clusterTestDocumentation</title>
<polygon fill="none" stroke="#000000" points="24,-88 24,-379 630,-379 630,-88 24,-88"/>
<text text-anchor="middle" x="539" y="-363.8" font-family="Times,serif" font-size="14.00" fill="#000000">Dynamic Test Documentation</text>
</g>
<!-- policy -->
<g id="node1" class="node">
<title>policy</title>
<g id="a_node1"><a xlink:href="TestPolicy.html#TestPolicy" target="_top" xlink:title="Test Policy">
<polygon fill="#f0e68c" stroke="#000000" points="376,-570 298,-570 298,-534 376,-534 376,-570"/>
<text text-anchor="middle" x="337" y="-548.3" font-family="Times,serif" font-size="14.00" fill="#000000">Test Policy</text>
</a>
</g>
</g>
<!-- strategy -->
<g id="node2" class="node">
<title>strategy</title>
<g id="a_node2"><a xlink:href="TestStrategy.html#TestStrategy" target="_top" xlink:title="Test Strategy">
<polygon fill="#f0e68c" stroke="#000000" points="381.5,-498 292.5,-498 292.5,-462 381.5,-462 381.5,-498"/>
<text text-anchor="middle" x="337" y="-476.3" font-family="Times,serif" font-size="14.00" fill="#000000">Test Strategy</text>
</a>
</g>
</g>
<!-- policy&#45;&gt;strategy -->
<g id="edge1" class="edge">
<title>policy&#45;&gt;strategy</title>
<path fill="none" stroke="#000000" d="M337,-533.8314C337,-526.131 337,-516.9743 337,-508.4166"/>
<polygon fill="#000000" stroke="#000000" points="340.5001,-508.4132 337,-498.4133 333.5001,-508.4133 340.5001,-508.4132"/>
</g>
<!-- plan -->
<g id="node3" class="node">
<title>plan</title>
<g id="a_node3"><a xlink:href="TestPlan.html#TestPlan" target="_top" xlink:title="Test Plan">
<polygon fill="#f0e68c" stroke="#000000" points="371,-423 303,-423 303,-387 371,-387 371,-423"/>
<text text-anchor="middle" x="337" y="-401.3" font-family="Times,serif" font-size="14.00" fill="#000000">Test Plan</text>
</a>
</g>
</g>
<!-- strategy&#45;&gt;plan -->
<g id="edge2" class="edge">
<title>strategy&#45;&gt;plan</title>
<path fill="none" stroke="#000000" d="M337,-461.8446C337,-453.3401 337,-443.0076 337,-433.4964"/>
<polygon fill="#000000" stroke="#000000" points="340.5001,-433.2481 337,-423.2482 333.5001,-433.2482 340.5001,-433.2481"/>
</g>
<!-- specification -->
<g id="node5" class="node">
<title>specification</title>
<g id="a_node5"><a xlink:href="TestPlan.html#TestPlan" target="_top" xlink:title="Test Specification">
<polygon fill="#f0e68c" stroke="#000000" points="394.5,-348 279.5,-348 279.5,-312 394.5,-312 394.5,-348"/>
<text text-anchor="middle" x="337" y="-326.3" font-family="Times,serif" font-size="14.00" fill="#000000">Test Specification</text>
</a>
</g>
</g>
<!-- plan&#45;&gt;specification -->
<g id="edge3" class="edge">
<title>plan&#45;&gt;specification</title>
<path fill="none" stroke="#000000" d="M337,-386.8446C337,-378.3401 337,-368.0076 337,-358.4964"/>
<polygon fill="#000000" stroke="#000000" points="340.5001,-358.2481 337,-348.2482 333.5001,-358.2482 340.5001,-358.2481"/>
</g>
<!-- mainreport -->
<g id="node4" class="node">
<title>mainreport</title>
<g id="a_node4"><a xlink:href="" target="_top" xlink:title="Test Completion Report">
<polygon fill="#f0e68c" stroke="#000000" points="344.5,-60 195.5,-60 195.5,-24 344.5,-24 344.5,-60"/>
<text text-anchor="middle" x="270" y="-38.3" font-family="Times,serif" font-size="14.00" fill="#000000">Test Completion Report</text>
</a>
</g>
</g>
<!-- environment -->
<g id="node6" class="node">
<title>environment</title>
<g id="a_node6"><a xlink:href="TestPlan.html#TestPlan" target="_top" xlink:title="Test Environment Requirements / Availablity Report">
<polygon fill="#f0e68c" stroke="#000000" points="338.5,-276 31.5,-276 31.5,-240 338.5,-240 338.5,-276"/>
<text text-anchor="middle" x="185" y="-254.3" font-family="Times,serif" font-size="14.00" fill="#000000">Test Environment Requirements / Availablity Report</text>
</a>
</g>
</g>
<!-- specification&#45;&gt;environment -->
<g id="edge4" class="edge">
<title>specification&#45;&gt;environment</title>
<path fill="none" stroke="#000000" d="M298.644,-311.8314C278.4956,-302.2874 253.6248,-290.5065 232.2917,-280.4013"/>
<polygon fill="#000000" stroke="#000000" points="233.6159,-277.1558 223.0802,-276.038 230.6193,-283.482 233.6159,-277.1558"/>
</g>
<!-- data -->
<g id="node7" class="node">
<title>data</title>
<g id="a_node7"><a xlink:href="TestPlan.html#TestPlan" target="_top" xlink:title="Test Data Requirements / Availability Report">
<polygon fill="#f0e68c" stroke="#000000" points="621.5,-276 356.5,-276 356.5,-240 621.5,-240 621.5,-276"/>
<text text-anchor="middle" x="489" y="-254.3" font-family="Times,serif" font-size="14.00" fill="#000000">Test Data Requirements / Availability Report</text>
</a>
</g>
</g>
<!-- specification&#45;&gt;data -->
<g id="edge8" class="edge">
<title>specification&#45;&gt;data</title>
<path fill="none" stroke="#000000" d="M375.356,-311.8314C395.5044,-302.2874 420.3752,-290.5065 441.7083,-280.4013"/>
<polygon fill="#000000" stroke="#000000" points="443.3807,-283.482 450.9198,-276.038 440.3841,-277.1558 443.3807,-283.482"/>
</g>
<!-- execution -->
<g id="node8" class="node">
<title>execution</title>
<g id="a_node8"><a xlink:href="" target="_top" xlink:title="Test Execution">
<polygon fill="#f0e68c" stroke="#000000" points="276,-204 178,-204 178,-168 276,-168 276,-204"/>
<text text-anchor="middle" x="227" y="-182.3" font-family="Times,serif" font-size="14.00" fill="#000000">Test Execution</text>
</a>
</g>
</g>
<!-- environment&#45;&gt;execution -->
<g id="edge5" class="edge">
<title>environment&#45;&gt;execution</title>
<path fill="none" stroke="#000000" d="M195.5984,-239.8314C200.2877,-231.7925 205.9028,-222.1666 211.0798,-213.2918"/>
<polygon fill="#000000" stroke="#000000" points="214.2434,-214.8146 216.2589,-204.4133 208.1969,-211.2875 214.2434,-214.8146"/>
</g>
<!-- data&#45;&gt;execution -->
<g id="edge9" class="edge">
<title>data&#45;&gt;execution</title>
<path fill="none" stroke="#000000" d="M423.2245,-239.9243C381.0741,-228.341 326.8282,-213.4337 286.0583,-202.2298"/>
<polygon fill="#000000" stroke="#000000" points="286.8328,-198.8129 276.2628,-199.5379 284.9778,-205.5627 286.8328,-198.8129"/>
</g>
<!-- bugs -->
<g id="node9" class="node">
<title>bugs</title>
<g id="a_node9"><a xlink:href="" target="_top" xlink:title="Incident Reports">
<polygon fill="#f0e68c" stroke="#000000" points="188.5,-132 81.5,-132 81.5,-96 188.5,-96 188.5,-132"/>
<text text-anchor="middle" x="135" y="-110.3" font-family="Times,serif" font-size="14.00" fill="#000000">Incident Reports</text>
</a>
</g>
</g>
<!-- execution&#45;&gt;bugs -->
<g id="edge10" class="edge">
<title>execution&#45;&gt;bugs</title>
<path fill="none" stroke="#000000" d="M203.7845,-167.8314C192.453,-158.9632 178.6536,-148.1637 166.3973,-138.5718"/>
<polygon fill="#000000" stroke="#000000" points="168.2402,-135.5697 158.2081,-132.1628 163.926,-141.0822 168.2402,-135.5697"/>
</g>
<!-- report -->
<g id="node10" class="node">
<title>report</title>
<g id="a_node10"><a xlink:href="" target="_top" xlink:title="Test (Status) Report">
<polygon fill="#f0e68c" stroke="#000000" points="333,-132 207,-132 207,-96 333,-96 333,-132"/>
<text text-anchor="middle" x="270" y="-110.3" font-family="Times,serif" font-size="14.00" fill="#000000">Test (Status) Report</text>
</a>
</g>
</g>
<!-- execution&#45;&gt;report -->
<g id="edge6" class="edge">
<title>execution&#45;&gt;report</title>
<path fill="none" stroke="#000000" d="M237.8507,-167.8314C242.7023,-159.7079 248.5217,-149.9637 253.868,-141.0118"/>
<polygon fill="#000000" stroke="#000000" points="256.8806,-142.7933 259.0032,-132.4133 250.8708,-139.2041 256.8806,-142.7933"/>
</g>
<!-- report&#45;&gt;mainreport -->
<g id="edge7" class="edge">
<title>report&#45;&gt;mainreport</title>
<path fill="none" stroke="#000000" d="M270,-95.8314C270,-88.131 270,-78.9743 270,-70.4166"/>
<polygon fill="#000000" stroke="#000000" points="273.5001,-70.4132 270,-60.4133 266.5001,-70.4133 273.5001,-70.4132"/>
</g>
</g>
</svg>
