<?xml version="1.0" encoding="UTF-8" standalone="no"?>
<!DOCTYPE svg PUBLIC "-//W3C//DTD SVG 1.1//EN"
 "http://www.w3.org/Graphics/SVG/1.1/DTD/svg11.dtd">
<!-- Generated by graphviz version 2.40.1 (20161225.0304)
 -->
<!-- Title: %3 Pages: 1 -->
<svg width="694pt" height="482pt"
 viewBox="0.00 0.00 694.40 482.40" xmlns="http://www.w3.org/2000/svg" xmlns:xlink="http://www.w3.org/1999/xlink">
<g id="graph0" class="graph" transform="scale(1 1) rotate(0) translate(7.2 475.2)">
<title>%3</title>
<polygon fill="#ffffff" stroke="transparent" points="-7.2,7.2 -7.2,-475.2 687.2,-475.2 687.2,7.2 -7.2,7.2"/>
<g id="clust1" class="cluster">
<title>clusterFunctional</title>
<g id="a_clust1"><a xlink:href="QualityAttributes.html#FunctionalRequirements" target="_top">
<path fill="#87ceff" stroke="#87ceff" d="M20,-320C20,-320 156,-320 156,-320 162,-320 168,-326 168,-332 168,-332 168,-448 168,-448 168,-454 162,-460 156,-460 156,-460 20,-460 20,-460 14,-460 8,-454 8,-448 8,-448 8,-332 8,-332 8,-326 14,-320 20,-320"/>
</a>
</g>
</g>
<g id="clust2" class="cluster">
<title>clusterSecurity</title>
<g id="a_clust2"><a xlink:href="QualityAttributes.html#SecurityRequirements" target="_top">
<path fill="#ff8247" stroke="#ff8247" d="M188,-8C188,-8 324,-8 324,-8 330,-8 336,-14 336,-20 336,-20 336,-196 336,-196 336,-202 330,-208 324,-208 324,-208 188,-208 188,-208 182,-208 176,-202 176,-196 176,-196 176,-20 176,-20 176,-14 182,-8 188,-8"/>
</a>
</g>
</g>
<g id="clust3" class="cluster">
<title>clusterMaintainable</title>
<g id="a_clust3"><a xlink:href="QualityAttributes.html#MaintainableRequirements" target="_top">
<path fill="#c6e2ff" stroke="#c6e2ff" d="M188,-216C188,-216 324,-216 324,-216 330,-216 336,-222 336,-228 336,-228 336,-448 336,-448 336,-454 330,-460 324,-460 324,-460 188,-460 188,-460 182,-460 176,-454 176,-448 176,-448 176,-228 176,-228 176,-222 182,-216 188,-216"/>
</a>
</g>
</g>
<g id="clust4" class="cluster">
<title>clusterEfficiency</title>
<g id="a_clust4"><a xlink:href="QualityAttributes.html#EfficiencyRequirements" target="_top">
<path fill="#ff34b3" stroke="#ff34b3" d="M356,-320C356,-320 492,-320 492,-320 498,-320 504,-326 504,-332 504,-332 504,-448 504,-448 504,-454 498,-460 492,-460 492,-460 356,-460 356,-460 350,-460 344,-454 344,-448 344,-448 344,-332 344,-332 344,-326 350,-320 356,-320"/>
</a>
</g>
</g>
<g id="clust5" class="cluster">
<title>clusterReliable</title>
<g id="a_clust5"><a xlink:href="QualityAttributes.html#ReliableRequirements" target="_top">
<path fill="#00ff7f" stroke="#00ff7f" d="M356,-112C356,-112 492,-112 492,-112 498,-112 504,-118 504,-124 504,-124 504,-300 504,-300 504,-306 498,-312 492,-312 492,-312 356,-312 356,-312 350,-312 344,-306 344,-300 344,-300 344,-124 344,-124 344,-118 350,-112 356,-112"/>
</a>
</g>
</g>
<g id="clust6" class="cluster">
<title>clusterUseable</title>
<g id="a_clust6"><a xlink:href="QualityAttributes.html#UseableRequirements" target="_top">
<path fill="#fff68f" stroke="#fff68f" d="M524,-112C524,-112 660,-112 660,-112 666,-112 672,-118 672,-124 672,-124 672,-448 672,-448 672,-454 666,-460 660,-460 660,-460 524,-460 524,-460 518,-460 512,-454 512,-448 512,-448 512,-124 512,-124 512,-118 518,-112 524,-112"/>
</a>
</g>
</g>
<g id="clust7" class="cluster">
<title>clusterPortable</title>
<g id="a_clust7"><a xlink:href="QualityAttributes.html#PortableRequirements" target="_top">
<path fill="#ffdab9" stroke="#ffdab9" d="M20,-60C20,-60 156,-60 156,-60 162,-60 168,-66 168,-72 168,-72 168,-300 168,-300 168,-306 162,-312 156,-312 156,-312 20,-312 20,-312 14,-312 8,-306 8,-300 8,-300 8,-72 8,-72 8,-66 14,-60 20,-60"/>
</a>
</g>
</g>
<!-- Functional -->
<g id="node1" class="node">
<title>Functional</title>
<text text-anchor="start" x="58.5" y="-431.3" font-family="Times,serif" font-weight="bold" font-size="14.00" fill="#000000">functional</text>
</g>
<!-- Feature -->
<g id="node2" class="node">
<title>Feature</title>
<path fill="#ffffff" stroke="#ffffff" d="M148,-408C148,-408 28,-408 28,-408 22,-408 16,-402 16,-396 16,-396 16,-384 16,-384 16,-378 22,-372 28,-372 28,-372 148,-372 148,-372 154,-372 160,-378 160,-384 160,-384 160,-396 160,-396 160,-402 154,-408 148,-408"/>
<text text-anchor="start" x="67" y="-387.3" font-family="Times,serif" font-weight="bold" font-size="14.00" fill="#000000">feature</text>
</g>
<!-- Functional&#45;&#45;Feature -->
<!-- Safety -->
<g id="node3" class="node">
<title>Safety</title>
<path fill="#ffffff" stroke="#ffffff" d="M148,-364C148,-364 28,-364 28,-364 22,-364 16,-358 16,-352 16,-352 16,-340 16,-340 16,-334 22,-328 28,-328 28,-328 148,-328 148,-328 154,-328 160,-334 160,-340 160,-340 160,-352 160,-352 160,-358 154,-364 148,-364"/>
<text text-anchor="start" x="71" y="-343.3" font-family="Times,serif" font-weight="bold" font-size="14.00" fill="#000000">safety</text>
</g>
<!-- Feature&#45;&#45;Safety -->
<!-- Portable -->
<g id="node27" class="node">
<title>Portable</title>
<text text-anchor="start" x="63.5" y="-283.3" font-family="Times,serif" font-weight="bold" font-size="14.00" fill="#000000">portable</text>
</g>
<!-- Safety&#45;&#45;Portable -->
<!-- Security -->
<g id="node4" class="node">
<title>Security</title>
<text text-anchor="start" x="233" y="-179.3" font-family="Times,serif" font-weight="bold" font-size="14.00" fill="#000000">security</text>
</g>
<!-- Confidentiality -->
<g id="node5" class="node">
<title>Confidentiality</title>
<path fill="#ffffff" stroke="#ffffff" d="M316,-156C316,-156 196,-156 196,-156 190,-156 184,-150 184,-144 184,-144 184,-132 184,-132 184,-126 190,-120 196,-120 196,-120 316,-120 316,-120 322,-120 328,-126 328,-132 328,-132 328,-144 328,-144 328,-150 322,-156 316,-156"/>
<text text-anchor="start" x="214" y="-135.3" font-family="Times,serif" font-weight="bold" font-size="14.00" fill="#000000">confidentiality</text>
</g>
<!-- Security&#45;&#45;Confidentiality -->
<!-- Integrity -->
<g id="node6" class="node">
<title>Integrity</title>
<path fill="#ffffff" stroke="#ffffff" d="M316,-104C316,-104 196,-104 196,-104 190,-104 184,-98 184,-92 184,-92 184,-80 184,-80 184,-74 190,-68 196,-68 196,-68 316,-68 316,-68 322,-68 328,-74 328,-80 328,-80 328,-92 328,-92 328,-98 322,-104 316,-104"/>
<text text-anchor="start" x="231" y="-83.3" font-family="Times,serif" font-weight="bold" font-size="14.00" fill="#000000">integrity</text>
</g>
<!-- Confidentiality&#45;&#45;Integrity -->
<!-- Available -->
<g id="node7" class="node">
<title>Available</title>
<path fill="#ffffff" stroke="#ffffff" d="M316,-52C316,-52 196,-52 196,-52 190,-52 184,-46 184,-40 184,-40 184,-28 184,-28 184,-22 190,-16 196,-16 196,-16 316,-16 316,-16 322,-16 328,-22 328,-28 328,-28 328,-40 328,-40 328,-46 322,-52 316,-52"/>
<text text-anchor="start" x="230" y="-31.3" font-family="Times,serif" font-weight="bold" font-size="14.00" fill="#000000">available</text>
</g>
<!-- Integrity&#45;&#45;Available -->
<!-- Maintainable -->
<g id="node8" class="node">
<title>Maintainable</title>
<text text-anchor="start" x="217.5" y="-431.3" font-family="Times,serif" font-weight="bold" font-size="14.00" fill="#000000">maintainable</text>
</g>
<!-- Testable -->
<g id="node9" class="node">
<title>Testable</title>
<path fill="#ffffff" stroke="#ffffff" d="M316,-408C316,-408 196,-408 196,-408 190,-408 184,-402 184,-396 184,-396 184,-384 184,-384 184,-378 190,-372 196,-372 196,-372 316,-372 316,-372 322,-372 328,-378 328,-384 328,-384 328,-396 328,-396 328,-402 322,-408 316,-408"/>
<text text-anchor="start" x="233.5" y="-387.3" font-family="Times,serif" font-weight="bold" font-size="14.00" fill="#000000">testable</text>
</g>
<!-- Maintainable&#45;&#45;Testable -->
<!-- Traceable -->
<g id="node10" class="node">
<title>Traceable</title>
<path fill="#ffffff" stroke="#ffffff" d="M316,-364C316,-364 196,-364 196,-364 190,-364 184,-358 184,-352 184,-352 184,-340 184,-340 184,-334 190,-328 196,-328 196,-328 316,-328 316,-328 322,-328 328,-334 328,-340 328,-340 328,-352 328,-352 328,-358 322,-364 316,-364"/>
<text text-anchor="start" x="229" y="-343.3" font-family="Times,serif" font-weight="bold" font-size="14.00" fill="#000000">traceable</text>
</g>
<!-- Testable&#45;&#45;Traceable -->
<!-- Stable -->
<g id="node11" class="node">
<title>Stable</title>
<path fill="#ffffff" stroke="#ffffff" d="M316,-304C316,-304 196,-304 196,-304 190,-304 184,-298 184,-292 184,-292 184,-280 184,-280 184,-274 190,-268 196,-268 196,-268 316,-268 316,-268 322,-268 328,-274 328,-280 328,-280 328,-292 328,-292 328,-298 322,-304 316,-304"/>
<text text-anchor="start" x="239" y="-283.3" font-family="Times,serif" font-weight="bold" font-size="14.00" fill="#000000">stable</text>
</g>
<!-- Traceable&#45;&#45;Stable -->
<!-- Modifiable -->
<g id="node12" class="node">
<title>Modifiable</title>
<path fill="#ffffff" stroke="#ffffff" d="M316,-260C316,-260 196,-260 196,-260 190,-260 184,-254 184,-248 184,-248 184,-236 184,-236 184,-230 190,-224 196,-224 196,-224 316,-224 316,-224 322,-224 328,-230 328,-236 328,-236 328,-248 328,-248 328,-254 322,-260 316,-260"/>
<text text-anchor="start" x="224.5" y="-239.3" font-family="Times,serif" font-weight="bold" font-size="14.00" fill="#000000">modifiable</text>
</g>
<!-- Stable&#45;&#45;Modifiable -->
<!-- Modifiable&#45;&#45;Security -->
<!-- Efficiency -->
<g id="node13" class="node">
<title>Efficiency</title>
<text text-anchor="start" x="396.5" y="-431.3" font-family="Times,serif" font-weight="bold" font-size="14.00" fill="#000000">efficiency</text>
</g>
<!-- Timing -->
<g id="node14" class="node">
<title>Timing</title>
<path fill="#ffffff" stroke="#ffffff" d="M484,-408C484,-408 364,-408 364,-408 358,-408 352,-402 352,-396 352,-396 352,-384 352,-384 352,-378 358,-372 364,-372 364,-372 484,-372 484,-372 490,-372 496,-378 496,-384 496,-384 496,-396 496,-396 496,-402 490,-408 484,-408"/>
<text text-anchor="start" x="404.5" y="-387.3" font-family="Times,serif" font-weight="bold" font-size="14.00" fill="#000000">timing</text>
</g>
<!-- Efficiency&#45;&#45;Timing -->
<!-- ResourceUtilization -->
<g id="node15" class="node">
<title>ResourceUtilization</title>
<path fill="#ffffff" stroke="#ffffff" d="M484,-364C484,-364 364,-364 364,-364 358,-364 352,-358 352,-352 352,-352 352,-340 352,-340 352,-334 358,-328 364,-328 364,-328 484,-328 484,-328 490,-328 496,-334 496,-340 496,-340 496,-352 496,-352 496,-358 490,-364 484,-364"/>
<text text-anchor="start" x="368" y="-343.3" font-family="Times,serif" font-weight="bold" font-size="14.00" fill="#000000">resource utilization</text>
</g>
<!-- Timing&#45;&#45;ResourceUtilization -->
<!-- Reliable -->
<g id="node16" class="node">
<title>Reliable</title>
<text text-anchor="start" x="402" y="-283.3" font-family="Times,serif" font-weight="bold" font-size="14.00" fill="#000000">reliable</text>
</g>
<!-- ResourceUtilization&#45;&#45;Reliable -->
<!-- FaultTolerance -->
<g id="node17" class="node">
<title>FaultTolerance</title>
<path fill="#ffffff" stroke="#ffffff" d="M484,-260C484,-260 364,-260 364,-260 358,-260 352,-254 352,-248 352,-248 352,-236 352,-236 352,-230 358,-224 364,-224 364,-224 484,-224 484,-224 490,-224 496,-230 496,-236 496,-236 496,-248 496,-248 496,-254 490,-260 484,-260"/>
<text text-anchor="start" x="381.5" y="-239.3" font-family="Times,serif" font-weight="bold" font-size="14.00" fill="#000000">fault tolerance</text>
</g>
<!-- Reliable&#45;&#45;FaultTolerance -->
<!-- Recoverable -->
<g id="node18" class="node">
<title>Recoverable</title>
<path fill="#ffffff" stroke="#ffffff" d="M484,-200C484,-200 364,-200 364,-200 358,-200 352,-194 352,-188 352,-188 352,-176 352,-176 352,-170 358,-164 364,-164 364,-164 484,-164 484,-164 490,-164 496,-170 496,-176 496,-176 496,-188 496,-188 496,-194 490,-200 484,-200"/>
<text text-anchor="start" x="390" y="-179.3" font-family="Times,serif" font-weight="bold" font-size="14.00" fill="#000000">recoverable</text>
</g>
<!-- FaultTolerance&#45;&#45;Recoverable -->
<!-- Available2 -->
<g id="node19" class="node">
<title>Available2</title>
<path fill="#ffffff" stroke="#ffffff" d="M484,-156C484,-156 364,-156 364,-156 358,-156 352,-150 352,-144 352,-144 352,-132 352,-132 352,-126 358,-120 364,-120 364,-120 484,-120 484,-120 490,-120 496,-126 496,-132 496,-132 496,-144 496,-144 496,-150 490,-156 484,-156"/>
<text text-anchor="start" x="398" y="-135.3" font-family="Times,serif" font-weight="bold" font-size="14.00" fill="#000000">available</text>
</g>
<!-- Recoverable&#45;&#45;Available2 -->
<!-- Useable -->
<g id="node20" class="node">
<title>Useable</title>
<text text-anchor="start" x="570.5" y="-431.3" font-family="Times,serif" font-weight="bold" font-size="14.00" fill="#000000">useable</text>
</g>
<!-- Accesible -->
<g id="node21" class="node">
<title>Accesible</title>
<path fill="#ffffff" stroke="#ffffff" d="M652,-408C652,-408 532,-408 532,-408 526,-408 520,-402 520,-396 520,-396 520,-384 520,-384 520,-378 526,-372 532,-372 532,-372 652,-372 652,-372 658,-372 664,-378 664,-384 664,-384 664,-396 664,-396 664,-402 658,-408 652,-408"/>
<text text-anchor="start" x="566" y="-387.3" font-family="Times,serif" font-weight="bold" font-size="14.00" fill="#000000">accesible</text>
</g>
<!-- Useable&#45;&#45;Accesible -->
<!-- FaultTolerance2 -->
<g id="node22" class="node">
<title>FaultTolerance2</title>
<path fill="#ffffff" stroke="#ffffff" d="M652,-364C652,-364 532,-364 532,-364 526,-364 520,-358 520,-352 520,-352 520,-340 520,-340 520,-334 526,-328 532,-328 532,-328 652,-328 652,-328 658,-328 664,-334 664,-340 664,-340 664,-352 664,-352 664,-358 658,-364 652,-364"/>
<text text-anchor="start" x="549.5" y="-343.3" font-family="Times,serif" font-weight="bold" font-size="14.00" fill="#000000">fault tolerance</text>
</g>
<!-- Accesible&#45;&#45;FaultTolerance2 -->
<!-- Consistency -->
<g id="node23" class="node">
<title>Consistency</title>
<path fill="#ffffff" stroke="#ffffff" d="M652,-304C652,-304 532,-304 532,-304 526,-304 520,-298 520,-292 520,-292 520,-280 520,-280 520,-274 526,-268 532,-268 532,-268 652,-268 652,-268 658,-268 664,-274 664,-280 664,-280 664,-292 664,-292 664,-298 658,-304 652,-304"/>
<text text-anchor="start" x="559" y="-283.3" font-family="Times,serif" font-weight="bold" font-size="14.00" fill="#000000">consistency</text>
</g>
<!-- FaultTolerance2&#45;&#45;Consistency -->
<!-- Attractiveness -->
<g id="node24" class="node">
<title>Attractiveness</title>
<path fill="#ffffff" stroke="#ffffff" d="M652,-260C652,-260 532,-260 532,-260 526,-260 520,-254 520,-248 520,-248 520,-236 520,-236 520,-230 526,-224 532,-224 532,-224 652,-224 652,-224 658,-224 664,-230 664,-236 664,-236 664,-248 664,-248 664,-254 658,-260 652,-260"/>
<text text-anchor="start" x="552" y="-239.3" font-family="Times,serif" font-weight="bold" font-size="14.00" fill="#000000">attractiveness</text>
</g>
<!-- Consistency&#45;&#45;Attractiveness -->
<!-- Learnable -->
<g id="node25" class="node">
<title>Learnable</title>
<path fill="#ffffff" stroke="#ffffff" d="M652,-200C652,-200 532,-200 532,-200 526,-200 520,-194 520,-188 520,-188 520,-176 520,-176 520,-170 526,-164 532,-164 532,-164 652,-164 652,-164 658,-164 664,-170 664,-176 664,-176 664,-188 664,-188 664,-194 658,-200 652,-200"/>
<text text-anchor="start" x="564.5" y="-179.3" font-family="Times,serif" font-weight="bold" font-size="14.00" fill="#000000">learnable</text>
</g>
<!-- Attractiveness&#45;&#45;Learnable -->
<!-- Adequacy -->
<g id="node26" class="node">
<title>Adequacy</title>
<path fill="#ffffff" stroke="#ffffff" d="M652,-156C652,-156 532,-156 532,-156 526,-156 520,-150 520,-144 520,-144 520,-132 520,-132 520,-126 526,-120 532,-120 532,-120 652,-120 652,-120 658,-120 664,-126 664,-132 664,-132 664,-144 664,-144 664,-150 658,-156 652,-156"/>
<text text-anchor="start" x="564.5" y="-135.3" font-family="Times,serif" font-weight="bold" font-size="14.00" fill="#000000">adequacy</text>
</g>
<!-- Learnable&#45;&#45;Adequacy -->
<!-- Installable -->
<g id="node28" class="node">
<title>Installable</title>
<path fill="#ffffff" stroke="#ffffff" d="M148,-260C148,-260 28,-260 28,-260 22,-260 16,-254 16,-248 16,-248 16,-236 16,-236 16,-230 22,-224 28,-224 28,-224 148,-224 148,-224 154,-224 160,-230 160,-236 160,-236 160,-248 160,-248 160,-254 154,-260 148,-260"/>
<text text-anchor="start" x="58" y="-239.3" font-family="Times,serif" font-weight="bold" font-size="14.00" fill="#000000">installable</text>
</g>
<!-- Portable&#45;&#45;Installable -->
<!-- Replaceable -->
<g id="node29" class="node">
<title>Replaceable</title>
<path fill="#ffffff" stroke="#ffffff" d="M148,-200C148,-200 28,-200 28,-200 22,-200 16,-194 16,-188 16,-188 16,-176 16,-176 16,-170 22,-164 28,-164 28,-164 148,-164 148,-164 154,-164 160,-170 160,-176 160,-176 160,-188 160,-188 160,-194 154,-200 148,-200"/>
<text text-anchor="start" x="54.5" y="-179.3" font-family="Times,serif" font-weight="bold" font-size="14.00" fill="#000000">replaceable</text>
</g>
<!-- Installable&#45;&#45;Replaceable -->
<!-- Coexistence -->
<g id="node30" class="node">
<title>Coexistence</title>
<path fill="#ffffff" stroke="#ffffff" d="M148,-156C148,-156 28,-156 28,-156 22,-156 16,-150 16,-144 16,-144 16,-132 16,-132 16,-126 22,-120 28,-120 28,-120 148,-120 148,-120 154,-120 160,-126 160,-132 160,-132 160,-144 160,-144 160,-150 154,-156 148,-156"/>
<text text-anchor="start" x="55.5" y="-135.3" font-family="Times,serif" font-weight="bold" font-size="14.00" fill="#000000">coexistence</text>
</g>
<!-- Replaceable&#45;&#45;Coexistence -->
<!-- Adaptable -->
<g id="node31" class="node">
<title>Adaptable</title>
<path fill="#ffffff" stroke="#ffffff" d="M148,-104C148,-104 28,-104 28,-104 22,-104 16,-98 16,-92 16,-92 16,-80 16,-80 16,-74 22,-68 28,-68 28,-68 148,-68 148,-68 154,-68 160,-74 160,-80 160,-80 160,-92 160,-92 160,-98 154,-104 148,-104"/>
<text text-anchor="start" x="59" y="-83.3" font-family="Times,serif" font-weight="bold" font-size="14.00" fill="#000000">adaptable</text>
</g>
<!-- Coexistence&#45;&#45;Adaptable -->
</g>
</svg>
