<?xml version="1.0" encoding="UTF-8" standalone="no"?>
<!DOCTYPE svg PUBLIC "-//W3C//DTD SVG 1.1//EN"
 "http://www.w3.org/Graphics/SVG/1.1/DTD/svg11.dtd">
<!-- Generated by graphviz version 2.40.1 (20161225.0304)
 -->
<!-- Title: Timeline Pages: 1 -->
<svg width="152pt" height="260pt"
 viewBox="0.00 0.00 152.00 260.00" xmlns="http://www.w3.org/2000/svg" xmlns:xlink="http://www.w3.org/1999/xlink">
<g id="graph0" class="graph" transform="scale(1 1) rotate(0) translate(4 256)">
<title>Timeline</title>
<polygon fill="#ffffff" stroke="transparent" points="-4,4 -4,-256 148,-256 148,4 -4,4"/>
<!-- TestStrategy -->
<g id="node1" class="node">
<title>TestStrategy</title>
<g id="a_node1"><a xlink:href="TestStrategy.html#TestStrategy" target="_top" xlink:title="test strategy">
<polygon fill="#87ceff" stroke="#87ceff" points="144,-252 0,-252 0,-216 144,-216 144,-252"/>
<text text-anchor="middle" x="72" y="-230.3" font-family="Times,serif" font-size="14.00" fill="#000000">test strategy</text>
</a>
</g>
</g>
<!-- TestPlan -->
<g id="node2" class="node">
<title>TestPlan</title>
<g id="a_node2"><a xlink:href="TestPlan.html#TestPlan" target="_top" xlink:title="test plan">
<polygon fill="#7ec0ee" stroke="#7ec0ee" points="144,-180 0,-180 0,-144 144,-144 144,-180"/>
<text text-anchor="middle" x="72" y="-158.3" font-family="Times,serif" font-size="14.00" fill="#000000">test plan</text>
</a>
</g>
</g>
<!-- TestStrategy&#45;&gt;TestPlan -->
<g id="edge1" class="edge">
<title>TestStrategy&#45;&gt;TestPlan</title>
<path fill="none" stroke="#000000" d="M72,-215.8314C72,-215.8314 72,-190.4133 72,-190.4133"/>
<polygon fill="#000000" stroke="#000000" points="75.5001,-190.4132 72,-180.4133 68.5001,-190.4133 75.5001,-190.4132"/>
</g>
<!-- TestReport -->
<g id="node3" class="node">
<title>TestReport</title>
<g id="a_node3"><a xlink:href="" target="_top" xlink:title="test report">
<polygon fill="#6ca6cd" stroke="#6ca6cd" points="144,-108 0,-108 0,-72 144,-72 144,-108"/>
<text text-anchor="middle" x="72" y="-86.3" font-family="Times,serif" font-size="14.00" fill="#000000">test report</text>
</a>
</g>
</g>
<!-- TestPlan&#45;&gt;TestReport -->
<g id="edge2" class="edge">
<title>TestPlan&#45;&gt;TestReport</title>
<path fill="none" stroke="#000000" d="M72,-143.8314C72,-143.8314 72,-118.4133 72,-118.4133"/>
<polygon fill="#000000" stroke="#000000" points="75.5001,-118.4132 72,-108.4133 68.5001,-118.4133 75.5001,-118.4132"/>
</g>
<!-- DefectManagement -->
<g id="node4" class="node">
<title>DefectManagement</title>
<g id="a_node4"><a xlink:href="" target="_top" xlink:title="defect management">
<polygon fill="#ff6347" stroke="#ff6347" points="144,-36 0,-36 0,0 144,0 144,-36"/>
<text text-anchor="middle" x="72" y="-14.3" font-family="Times,serif" font-size="14.00" fill="#000000">defect management</text>
</a>
</g>
</g>
<!-- TestReport&#45;&gt;DefectManagement -->
<g id="edge3" class="edge">
<title>TestReport&#45;&gt;DefectManagement</title>
<path fill="none" stroke="#000000" d="M72,-71.8314C72,-71.8314 72,-46.4133 72,-46.4133"/>
<polygon fill="#000000" stroke="#000000" points="75.5001,-46.4132 72,-36.4133 68.5001,-46.4133 75.5001,-46.4132"/>
</g>
</g>
</svg>
