<?xml version="1.0" encoding="UTF-8" standalone="no"?>
<!DOCTYPE svg PUBLIC "-//W3C//DTD SVG 1.1//EN"
 "http://www.w3.org/Graphics/SVG/1.1/DTD/svg11.dtd">
<!-- Generated by graphviz version 2.40.1 (20161225.0304)
 -->
<!-- Title: %3 Pages: 1 -->
<svg width="385pt" height="261pt"
 viewBox="0.00 0.00 385.48 261.29" xmlns="http://www.w3.org/2000/svg" xmlns:xlink="http://www.w3.org/1999/xlink">
<g id="graph0" class="graph" transform="scale(1 1) rotate(0) translate(4 257.2879)">
<title>%3</title>
<polygon fill="#ffffff" stroke="transparent" points="-4,4 -4,-257.2879 381.4787,-257.2879 381.4787,4 -4,4"/>
<g id="clust1" class="cluster">
<title>cluster_Template</title>
<polygon fill="none" stroke="#000000" points="117.9787,-64 117.9787,-245.2879 290.9787,-245.2879 290.9787,-64 117.9787,-64"/>
<text text-anchor="middle" x="204.4787" y="-230.0879" font-family="Times,serif" font-size="14.00" fill="#000000">Template Project</text>
</g>
<!-- ConfigReader -->
<g id="node1" class="node">
<title>ConfigReader</title>
<g id="a_node1"><a xlink:href="" target="_top" xlink:title="Config Reader">
<polygon fill="#32cd32" stroke="#000000" points="282.9787,-214.2879 186.9787,-214.2879 186.9787,-178.2879 282.9787,-178.2879 282.9787,-214.2879"/>
<text text-anchor="middle" x="234.9787" y="-192.5879" font-family="Times,serif" font-size="14.00" fill="#000000">Config Reader</text>
</a>
</g>
</g>
<!-- Worker1 -->
<g id="node2" class="node">
<title>Worker1</title>
<g id="a_node2"><a xlink:href="" target="_top" xlink:title="Worker 1">
<polygon fill="#32cd32" stroke="#000000" points="195.4787,-108 126.4787,-108 126.4787,-72 195.4787,-72 195.4787,-108"/>
<text text-anchor="middle" x="160.9787" y="-86.3" font-family="Times,serif" font-size="14.00" fill="#000000">Worker 1</text>
</a>
</g>
</g>
<!-- ConfigReader&#45;&gt;Worker1 -->
<g id="edge4" class="edge">
<title>ConfigReader&#45;&gt;Worker1</title>
<path fill="none" stroke="#d2691e" d="M216.6186,-169.9168C203.2228,-150.6761 185.4146,-125.0979 173.5934,-108.1187"/>
<polygon fill="#d2691e" stroke="#d2691e" points="213.8394,-172.0505 222.4256,-178.2576 219.5842,-168.0509 213.8394,-172.0505"/>
</g>
<!-- Worker2 -->
<g id="node3" class="node">
<title>Worker2</title>
<g id="a_node3"><a xlink:href="" target="_top" xlink:title="Worker 2">
<polygon fill="#32cd32" stroke="#000000" points="282.4787,-108 213.4787,-108 213.4787,-72 282.4787,-72 282.4787,-108"/>
<text text-anchor="middle" x="247.9787" y="-86.3" font-family="Times,serif" font-size="14.00" fill="#000000">Worker 2</text>
</a>
</g>
</g>
<!-- ConfigReader&#45;&gt;Worker2 -->
<g id="edge5" class="edge">
<title>ConfigReader&#45;&gt;Worker2</title>
<path fill="none" stroke="#d2691e" d="M238.429,-168.0783C240.7537,-149.0716 243.7514,-124.5625 245.7626,-108.1187"/>
<polygon fill="#d2691e" stroke="#d2691e" points="234.924,-167.9066 237.184,-178.2576 241.8722,-168.7565 234.924,-167.9066"/>
</g>
<!-- Config -->
<g id="node6" class="node">
<title>Config</title>
<polygon fill="#d2691e" stroke="#000000" points="377.4787,-108 300.4787,-108 300.4787,-72 377.4787,-72 377.4787,-108"/>
<text text-anchor="middle" x="338.9787" y="-86.3" font-family="Times,serif" font-size="14.00" fill="#000000">config.json</text>
</g>
<!-- ConfigReader&#45;&gt;Config -->
<g id="edge6" class="edge">
<title>ConfigReader&#45;&gt;Config</title>
<path fill="none" stroke="#d2691e" d="M259.7706,-170.9506C278.7041,-151.6006 304.337,-125.4038 321.25,-108.1187"/>
<polygon fill="#d2691e" stroke="#d2691e" points="257.113,-168.6622 252.6209,-178.2576 262.1163,-173.5578 257.113,-168.6622"/>
</g>
<!-- OperatingSystem -->
<g id="node5" class="node">
<title>OperatingSystem</title>
<polygon fill="#ededed" stroke="#000000" points="230.9787,-36 176.9787,-36 176.9787,0 230.9787,0 230.9787,-36"/>
<text text-anchor="middle" x="203.9787" y="-14.3" font-family="Times,serif" font-size="14.00" fill="#000000">Linux</text>
</g>
<!-- Worker1&#45;&gt;OperatingSystem -->
<g id="edge2" class="edge">
<title>Worker1&#45;&gt;OperatingSystem</title>
<path fill="none" stroke="#000000" d="M171.8294,-71.8314C176.681,-63.7079 182.5004,-53.9637 187.8467,-45.0118"/>
<polygon fill="#000000" stroke="#000000" points="190.8593,-46.7933 192.9819,-36.4133 184.8495,-43.2041 190.8593,-46.7933"/>
</g>
<!-- Worker2&#45;&gt;OperatingSystem -->
<g id="edge3" class="edge">
<title>Worker2&#45;&gt;OperatingSystem</title>
<path fill="none" stroke="#000000" d="M236.8757,-71.8314C231.9113,-63.7079 225.9565,-53.9637 220.4859,-45.0118"/>
<polygon fill="#000000" stroke="#000000" points="223.4323,-43.121 215.2313,-36.4133 217.4593,-46.7712 223.4323,-43.121"/>
</g>
<!-- User -->
<g id="node4" class="node">
<title>User</title>
<polygon fill="#ededed" stroke="#000000" points="109.9361,-208.5815 67.9524,-208.5815 54.9787,-248.3644 42.005,-208.5815 .0213,-208.5815 33.9868,-183.9942 21.0132,-144.2113 54.9787,-168.7985 88.9443,-144.2113 75.9706,-183.9942 109.9361,-208.5815"/>
<text text-anchor="middle" x="54.9787" y="-192.5879" font-family="Times,serif" font-size="14.00" fill="#000000">User</text>
</g>
<!-- User&#45;&gt;Worker1 -->
<g id="edge1" class="edge">
<title>User&#45;&gt;Worker1</title>
<path fill="none" stroke="#000000" d="M80.3684,-170.8293C97.0461,-154.1062 118.7845,-132.3088 135.4835,-115.5644"/>
<polygon fill="#000000" stroke="#000000" points="138.1819,-117.8152 142.7651,-108.263 133.2254,-112.8722 138.1819,-117.8152"/>
</g>
</g>
</svg>
