<?xml version="1.0" encoding="UTF-8" standalone="no"?>
<!DOCTYPE svg PUBLIC "-//W3C//DTD SVG 1.1//EN"
 "http://www.w3.org/Graphics/SVG/1.1/DTD/svg11.dtd">
<!-- Generated by graphviz version 2.40.1 (20161225.0304)
 -->
<!-- Title: %3 Pages: 1 -->
<svg width="158pt" height="257pt"
 viewBox="0.00 0.00 157.50 256.58" xmlns="http://www.w3.org/2000/svg" xmlns:xlink="http://www.w3.org/1999/xlink">
<g id="graph0" class="graph" transform="scale(1 1) rotate(0) translate(4 252.5757)">
<title>%3</title>
<polygon fill="#ffffff" stroke="transparent" points="-4,4 -4,-252.5757 153.5,-252.5757 153.5,4 -4,4"/>
<!-- TemplateProject -->
<g id="node1" class="node">
<title>TemplateProject</title>
<g id="a_node1"><a xlink:href="C2_TemplateProject.html#C2_TemplateProject" target="_top" xlink:title="Template Project">
<polygon fill="#32cd32" stroke="#000000" points="124,-108 14,-108 14,-72 124,-72 124,-108"/>
<text text-anchor="middle" x="69" y="-86.3" font-family="Times,serif" font-size="14.00" fill="#000000">Template Project</text>
</a>
</g>
</g>
<!-- OperatingSystem -->
<g id="node3" class="node">
<title>OperatingSystem</title>
<polygon fill="#ededed" stroke="#000000" points="54,-36 0,-36 0,0 54,0 54,-36"/>
<text text-anchor="middle" x="27" y="-14.3" font-family="Times,serif" font-size="14.00" fill="#000000">Linux</text>
</g>
<!-- TemplateProject&#45;&gt;OperatingSystem -->
<g id="edge2" class="edge">
<title>TemplateProject&#45;&gt;OperatingSystem</title>
<path fill="none" stroke="#000000" d="M58.4016,-71.8314C53.7123,-63.7925 48.0972,-54.1666 42.9202,-45.2918"/>
<polygon fill="#000000" stroke="#000000" points="45.8031,-43.2875 37.7411,-36.4133 39.7566,-46.8146 45.8031,-43.2875"/>
</g>
<!-- Config -->
<g id="node4" class="node">
<title>Config</title>
<polygon fill="#d2691e" stroke="#000000" points="149.5,-36 72.5,-36 72.5,0 149.5,0 149.5,-36"/>
<text text-anchor="middle" x="111" y="-14.3" font-family="Times,serif" font-size="14.00" fill="#000000">config.json</text>
</g>
<!-- TemplateProject&#45;&gt;Config -->
<g id="edge3" class="edge">
<title>TemplateProject&#45;&gt;Config</title>
<path fill="none" stroke="#d2691e" d="M84.7631,-62.9775C89.9311,-54.1182 95.551,-44.484 100.2589,-36.4133"/>
<polygon fill="#d2691e" stroke="#d2691e" points="81.6139,-61.43 79.5984,-71.8314 87.6604,-64.9571 81.6139,-61.43"/>
</g>
<!-- User -->
<g id="node2" class="node">
<title>User</title>
<polygon fill="#ededed" stroke="#000000" points="123.9574,-208.5815 81.9737,-208.5815 69,-248.3644 56.0263,-208.5815 14.0426,-208.5815 48.0081,-183.9942 35.0344,-144.2113 69,-168.7985 102.9656,-144.2113 89.9919,-183.9942 123.9574,-208.5815"/>
<text text-anchor="middle" x="69" y="-192.5879" font-family="Times,serif" font-size="14.00" fill="#000000">User</text>
</g>
<!-- User&#45;&gt;TemplateProject -->
<g id="edge1" class="edge">
<title>User&#45;&gt;TemplateProject</title>
<path fill="none" stroke="#000000" d="M69,-168.6394C69,-153.1469 69,-133.8658 69,-118.2731"/>
<polygon fill="#000000" stroke="#000000" points="72.5001,-118.1592 69,-108.1592 65.5001,-118.1593 72.5001,-118.1592"/>
</g>
</g>
</svg>
